Coordinates
version=1
nRows=16
nColumns=40
inDegrees=yes

Units are S.I. units (second, meters, Newtons, ...)
Angles are in degrees.

endheader
time	pelvis_tilt	pelvis_list	pelvis_rotation	pelvis_tx	pelvis_ty	pelvis_tz	hip_flexion_r	hip_adduction_r	hip_rotation_r	knee_angle_r	knee_angle_r_beta	ankle_angle_r	subtalar_angle_r	mtp_angle_r	hip_flexion_l	hip_adduction_l	hip_rotation_l	knee_angle_l	knee_angle_l_beta	ankle_angle_l	subtalar_angle_l	mtp_angle_l	lumbar_extension	lumbar_bending	lumbar_rotation	arm_flex_r	arm_add_r	arm_rot_r	elbow_flex_r	pro_sup_r	wrist_flex_r	wrist_dev_r	arm_flex_l	arm_add_l	arm_rot_l	elbow_flex_l	pro_sup_l	wrist_flex_l	wrist_dev_l
     14.13000000	     -4.48969619	     -2.55587809	     -0.19761064	      0.90699019	      0.92556139	      0.42110560	     28.99568161	     -5.84596665	     -5.78182222	     72.84166611	     72.84166611	     -7.13839461	    -15.83644118	     -1.26958947	     19.58485173	     -3.84036912	     -5.16519750	     24.97718025	     24.97718025	     11.90511210	    -14.82152310	      1.12133142	     -9.70216169	      2.71414953	      2.76145611	      6.07324420	    -13.38012614	      0.56486832	     42.02310770	     45.80375500	      0.00000000	      0.00000000	     -2.64909788	    -12.61406886	     -9.50884260	     54.55510040	     46.16697627	      0.00000000	      0.00000000
     14.14250000	     -4.55275903	     -2.69668044	     -0.59421829	      0.90659322	      0.92674016	      0.42098764	     30.75085523	     -5.63465455	     -5.58937336	     72.81212374	     72.81212374	     -6.63055793	    -16.07136227	     -1.42864761	     18.64945069	     -3.94731060	     -5.24116932	     24.21190779	     24.21190779	     12.07121974	    -15.11582054	      1.30579608	     -9.78685397	      3.11289143	      2.83708689	      5.11032992	    -13.88196997	      0.48027096	     40.88093910	     45.84496512	      0.00000000	      0.00000000	     -2.42826394	    -12.59850162	     -9.60009273	     55.00144548	     46.18705955	      0.00000000	      0.00000000
     14.15500000	     -4.47741869	     -2.78318764	     -1.02863444	      0.90624966	      0.92805025	      0.42104997	     32.29010079	     -5.34460031	     -5.27969103	     72.61358664	     72.61358664	     -5.88811137	    -16.34558941	     -0.62636206	     17.52532649	     -4.02962314	     -5.46133225	     23.37638491	     23.37638491	     12.01559702	    -15.38355119	      0.79650863	    -10.04263390	      3.32057654	      2.54024498	      6.18055790	    -13.44200425	     -0.98827600	     35.13548425	     46.14493093	      0.00000000	      0.00000000	     -2.93040355	    -12.84931772	     -9.60149775	     57.12184590	     46.27410799	      0.00000000	      0.00000000
     14.16750000	     -4.40933802	     -2.90023135	     -1.46263893	      0.90597113	      0.92925447	      0.42117525	     33.68040513	     -5.00873488	     -5.06301688	     72.09183777	     72.09183777	     -5.31564853	    -16.74515337	     -0.36043996	     16.45352198	     -4.18267115	     -5.85498288	     22.65238801	     22.65238801	     12.30973264	    -15.20105508	      0.81052320	    -10.34233668	      3.63077531	      2.82567073	      5.32701974	    -13.90248216	     -1.23752896	     33.99578936	     46.19696481	      0.00000000	      0.00000000	     -2.60790400	    -12.79254477	     -9.82941837	     57.95404536	     46.31638613	      0.00000000	      0.00000000
     14.18000000	     -4.40348353	     -3.05870588	     -1.85313023	      0.90569398	      0.93019193	      0.42142009	     35.03802560	     -4.64782913	     -4.98064739	     71.31947659	     71.31947659	     -4.24087162	    -16.78900225	      1.29964403	     15.52023481	     -4.39758105	     -6.25597447	     22.02418418	     22.02418418	     12.42698701	    -15.02636294	      0.32700001	    -10.51570513	      3.92465997	      2.48463189	      5.85393035	    -13.77207351	     -2.80594315	     30.22784932	     46.44288481	      0.00000000	      0.00000000	     -3.22196805	    -13.05159735	    -10.00547540	     60.11972122	     46.40901763	      0.00000000	      0.00000000
     14.19250000	     -4.32074237	     -3.14895353	     -2.21237207	      0.90556985	      0.93127795	      0.42162875	     36.05565258	     -4.39623902	     -4.98925736	     69.98729711	     69.98729711	     -3.56769145	    -16.96622401	      1.48895854	     14.38641260	     -4.47117959	     -6.56214236	     21.17448483	     21.17448483	     12.65045791	    -14.86788397	      0.42373227	    -10.81930521	      4.18398562	      2.55520573	      5.18249421	    -14.17357506	     -3.07703118	     29.37605251	     46.49001828	      0.00000000	      0.00000000	     -2.98601373	    -12.98854230	    -10.16933215	     60.69088937	     46.44142516	      0.00000000	      0.00000000
     14.20500000	     -4.26884029	     -3.22640894	     -2.56358025	      0.90551194	      0.93213042	      0.42196236	     36.92931623	     -4.15217446	     -5.05342849	     68.21180541	     68.21180541	     -2.78524217	    -16.96831077	      1.76445029	     13.34291556	     -4.53736507	     -6.86818342	     20.43036409	     20.43036409	     12.87205935	    -14.73282060	      0.39931528	    -11.08064167	      4.38751086	      2.67362278	      4.66233575	    -14.55144494	     -3.48258616	     28.20283906	     46.56279875	      0.00000000	      0.00000000	     -2.85823717	    -13.01044906	    -10.28208498	     61.61619108	     46.47723631	      0.00000000	      0.00000000
     14.21750000	     -4.25373387	     -3.32666712	     -2.86972456	      0.90551188	      0.93285368	      0.42241142	     37.61338350	     -3.90211049	     -5.23255186	     65.91248088	     65.91248088	     -1.96725871	    -16.81344527	      1.91858299	     12.36570262	     -4.63106884	     -7.15823496	     19.71579384	     19.71579384	     13.02725967	    -14.59340499	      0.37303366	    -11.28126904	      4.61089587	      2.59264669	      4.24596013	    -14.88945021	     -3.88089327	     27.16328718	     46.63250302	      0.00000000	      0.00000000	     -2.83894818	    -13.03069468	    -10.30568591	     62.50133823	     46.50371805	      0.00000000	      0.00000000
     14.23000000	     -4.29158195	     -3.40515633	     -3.13770790	      0.90565379	      0.93327385	      0.42289030	     38.11588908	     -3.69107665	     -5.47932293	     63.10392839	     63.10392839	     -1.13267196	    -16.45566013	      1.91611376	     11.48811931	     -4.69170248	     -7.36487711	     19.08970921	     19.08970921	     13.25963348	    -14.47931104	      0.30800893	    -11.37917764	      4.82028672	      2.45388550	      3.84982468	    -15.22544719	     -4.19496277	     26.38365284	     46.68661578	      0.00000000	      0.00000000	     -2.84954503	    -13.01914574	    -10.29120238	     63.22606765	     46.52196001	      0.00000000	      0.00000000
     14.24250000	     -4.34575745	     -3.47814606	     -3.39008912	      0.90588757	      0.93357031	      0.42352433	     38.37840736	     -3.46179790	     -5.75202726	     59.76078308	     59.76078308	     -0.28644319	    -15.83635882	      1.80497953	     10.64071216	     -4.75458692	     -7.58428838	     18.48627688	     18.48627688	     13.43836636	    -14.36878384	      0.26012390	    -11.48209049	      4.99869728	      2.32874583	      3.43936532	    -15.55856619	     -4.46828539	     25.72614436	     46.73312398	      0.00000000	      0.00000000	     -2.85941207	    -13.01245276	    -10.26205959	     63.91211001	     46.53744849	      0.00000000	      0.00000000
     14.25500000	     -4.25519815	     -3.42850270	     -3.67264828	      0.90640556	      0.93389358	      0.42423504	     38.21031228	     -3.33324900	     -5.96439254	     55.89204913	     55.89204913	      0.38237362	    -14.88696990	      0.97487961	      9.52612595	     -4.66652521	     -7.90565600	     17.70968808	     17.70968808	     13.54696000	    -14.19263187	      0.01037852	    -11.74355864	      4.99418255	      2.30363795	      3.25373697	    -15.76857545	     -5.17756567	     24.56276629	     46.83932156	      0.00000000	      0.00000000	     -3.03810566	    -13.05880967	    -10.10908779	     65.32872949	     46.56882630	      0.00000000	      0.00000000
     14.26750000	     -4.30068806	     -3.41648114	     -3.85357745	      0.90706566	      0.93384386	      0.42494448	     37.85661962	     -3.22091344	     -6.37932859	     51.48952043	     51.48952043	      0.80882304	    -13.70108330	     -0.43935049	      8.65289226	     -4.62493156	     -8.10968512	     17.09618403	     17.09618403	     13.60344192	    -14.05669878	     -0.33128288	    -11.79307773	      5.14016775	      2.10629352	      3.12809952	    -15.92545894	     -6.19186745	     23.63606224	     46.96145059	      0.00000000	      0.00000000	     -3.31814168	    -13.08560702	     -9.93430706	     66.35183327	     46.60607667	      0.00000000	      0.00000000
     14.28000000	     -4.43682986	     -3.55345785	     -4.01758527	      0.90776635	      0.93341661	      0.42600171	     37.34603916	     -2.83623348	     -6.81978922	     46.73915501	     46.73915501	      1.42427910	    -12.33400923	     -0.39782160	      8.03891476	     -4.79016200	     -8.20210017	     16.81995850	     16.81995850	     13.91094402	    -14.09117216	     -0.45879960	    -11.71986695	      5.29838465	      1.83747633	      2.73809410	    -16.22472292	     -6.42263050	     23.41939075	     46.98647197	      0.00000000	      0.00000000	     -3.30273548	    -12.96127773	     -9.85103143	     66.60187765	     46.61185486	      0.00000000	      0.00000000
     14.29250000	     -4.50246717	     -3.59251559	     -4.14345489	      0.90881159	      0.93288790	      0.42705671	     36.46838705	     -2.55645479	     -7.29617220	     41.67308961	     41.67308961	      1.99554335	    -10.48767094	     -0.27491914	      7.28442534	     -4.83872524	     -8.34541624	     16.44995509	     16.44995509	     14.20555583	    -13.97771371	     -0.59111699	    -11.67585503	      5.44663939	      1.73218817	      2.31074608	    -16.46192727	     -6.63341857	     23.23645589	     47.00771986	      0.00000000	      0.00000000	     -3.29122389	    -12.83514972	     -9.74237557	     66.94080250	     46.61677928	      0.00000000	      0.00000000
     14.30500000	     -4.48507502	     -3.59465941	     -4.23591178	      0.91016558	      0.93215536	      0.42825921	     35.26787380	     -2.30266445	     -7.90467025	     36.48334954	     36.48334954	      2.40084665	     -8.29022384	      0.03258117	      6.43289610	     -4.85079669	     -8.49265639	     16.10443342	     16.10443342	     14.57233325	    -13.81342424	     -0.77560746	    -11.67575845	      5.51888557	      1.65620147	      1.85948507	    -16.67868957	     -6.87013740	     23.10865267	     47.02811415	      0.00000000	      0.00000000	     -3.28225167	    -12.68894084	     -9.56990543	     67.32304150	     46.61881247	      0.00000000	      0.00000000
     14.31750000	     -4.38694695	     -3.57944306	     -4.28063721	      0.91189177	      0.93118602	      0.42960706	     33.81376023	     -2.06125522	     -8.67021255	     31.38118369	     31.38118369	      2.70062208	     -5.75319561	      0.59200667	      5.49242065	     -4.85243465	     -8.63316121	     15.80226255	     15.80226255	     15.02031594	    -13.57327903	     -1.00086120	    -11.71337843	      5.55302217	      1.61787881	      1.38900990	    -16.86296446	     -7.18013977	     23.07100311	     47.04963523	      0.00000000	      0.00000000	     -3.29592376	    -12.54622360	     -9.30864629	     67.73028682	     46.61780135	      0.00000000	      0.00000000
